<svg id="Capa_1" enable-background="new 0 0 512 512" height="512" viewBox="0 0 512 512" width="512" xmlns="http://www.w3.org/2000/svg"><g><g><path d="m408.033 177.961-48.964-20.974-48.963 20.974v-142.15h97.927z" fill="#ffbdbc"/></g><g fill="#020288"><path d="m496.109 326.631c-15.976-11.228-37.54-9.279-51.278 4.635-.44.446-.838.933-1.187 1.453l-21.938 32.685c-6.142-14.497-20.412-24.681-36.991-24.681l-157.833-.106h-.007c-2.393 0-4.707.858-6.522 2.419l-39.538 34.017h-28.857v-8.789c0-5.523-4.477-10-10-10h-44.029v-1.368c0-5.523-4.477-10-10-10h-77.929c-5.523 0-10 4.477-10 10v117.278c0 5.523 4.477 10 10 10h77.929c5.523 0 10-4.477 10-10v-1.368h44.029c5.523 0 10-4.477 10-10v-9.233h33.159l29.954 31.753c1.891 2.004 4.523 3.138 7.274 3.138.046 0 .094-.001.14-.001l206.514-2.897c3.222-.045 6.225-1.64 8.066-4.284l65.616-94.224c.041-.059.082-.119.121-.178 6.354-9.556 9.605-20.515 9.157-30.858-.526-12.14-6.155-22.577-15.85-29.391zm-418.18 137.543h-57.929v-97.278h57.929zm54.029-11.367h-34.029v-74.542h34.029zm354.243-77.082-62.615 89.915-196.984 2.763-29.897-31.692c-1.889-2.003-4.521-3.138-7.274-3.138h-37.473v-36.52h32.566c2.394 0 4.708-.858 6.522-2.419l39.536-34.015 154.126.104c11.147 0 20.216 9.236 20.216 20.589 0 11.352-9.068 20.587-20.216 20.587-.026 0-.052.001-.078.001h-86.24c-2.744 0-5.368 1.128-7.257 3.12l-21.038 22.19c-3.8 4.008-3.631 10.337.377 14.137 1.934 1.834 4.408 2.743 6.878 2.743 2.649 0 5.293-1.046 7.259-3.12l18.08-19.07 99.847.005h.003c3.332 0 6.446-1.66 8.303-4.427l48.832-72.751c6.864-6.397 17.213-7.16 24.935-1.732 10.422 7.324 8.692 21.99 1.592 32.73z"/><path d="m479.459 23.536h-240.779c-17.943 0-32.541 14.598-32.541 32.541v205.901c0 17.943 14.598 32.541 32.541 32.541h240.779c17.943 0 32.541-14.598 32.541-32.541v-205.901c0-17.943-14.598-32.541-32.541-32.541zm12.541 238.442c0 6.915-5.626 12.541-12.541 12.541h-240.779c-6.915 0-12.541-5.626-12.541-12.541v-205.901c0-6.915 5.626-12.541 12.541-12.541h240.779c6.915 0 12.541 5.626 12.541 12.541z"/><path d="m457.53 218.29h-60.411c-5.522 0-10 4.477-10 10s4.478 10 10 10h60.411c5.522 0 10-4.477 10-10 0-5.522-4.477-10-10-10z"/></g></g></svg>