<svg id="Layer_1" height="512" viewBox="0 0 512 512" width="512" xmlns="http://www.w3.org/2000/svg" data-name="Layer 1"><path d="m466.6 47.17-58.57-26.73a38.106 38.106 0 0 0 -31.49-.07l-45.12 20.32a38.529 38.529 0 0 0 -22.56 37.77l2.96 43.02a38.505 38.505 0 0 0 16.66 29.15l22.83 15.63a38.523 38.523 0 0 1 16.57 28.01l6.42 65.11a38.454 38.454 0 0 1 -35.6 42.19l-82.69 5.62a38.4 38.4 0 0 0 -32.97 23.94l-15.79 39.05a38.735 38.735 0 0 1 -18.01 19.96c-52.47 27.16-67.34 65.99-65.91 89.81a16.137 16.137 0 0 0 16.17 15.05h333.29a16.226 16.226 0 0 0 16.2-16.25v-396.68a38.35 38.35 0 0 0 -22.39-34.9z" fill="#baa379"/><path d="m153.33 479.95c-1.43-23.82 13.44-62.65 65.91-89.81a38.735 38.735 0 0 0 18.01-19.96l15.79-39.05a38.4 38.4 0 0 1 32.97-23.94l82.69-5.62a38.454 38.454 0 0 0 35.6-42.19l-6.42-65.11a38.523 38.523 0 0 0 -16.57-28.01l-22.83-15.63a38.505 38.505 0 0 1 -16.66-29.15l-2.96-43.02a38.529 38.529 0 0 1 22.56-37.77l45.12-20.32c.22-.1.445-.184.667-.279a38.1 38.1 0 0 0 -30.667.279l-45.12 20.32a38.529 38.529 0 0 0 -22.56 37.77l2.96 43.02a38.505 38.505 0 0 0 16.66 29.15l22.83 15.63a38.523 38.523 0 0 1 16.57 28.01l6.42 65.11a38.454 38.454 0 0 1 -35.6 42.19l-82.69 5.62a38.4 38.4 0 0 0 -32.97 23.94l-15.79 39.05a38.735 38.735 0 0 1 -18.01 19.96c-52.47 27.16-67.34 65.99-65.91 89.81a16.137 16.137 0 0 0 16.17 15.05h30a16.137 16.137 0 0 1 -16.17-15.05z" fill="#998565"/><path d="m100.65 388.39-26.21 55.31a22.878 22.878 0 1 1 -41.34-19.61l26.3-55.39 40.64 19.4z" fill="#7f3d32"/><path d="m167.91 140.11 41.11 19.6-108.37 228.68-.61-.29-40.64-19.4z" fill="#c2684f"/><path d="m233.81 53.92a22.976 22.976 0 0 1 10.84 30.58l-13.42 28.57-41.2-19.64 13.29-28.64a22.867 22.867 0 0 1 20.68-13.1 22.637 22.637 0 0 1 9.81 2.23z" fill="#b0b5ca"/><path d="m179.2 91.41a12.886 12.886 0 0 0 -8.68 7.04l-11.05 23.31a12.819 12.819 0 0 0 -1.14 7.17c-22.23-24.18-93.32-52.11-132.59-63.52-3.3-.96-3.79-6.82-.49-7.79 74.14-21.74 152.92 33.08 153.95 33.79z" fill="#b0b5ca"/><path d="m348.59 246.92c.93 3.31-4.65 5.73-7.06 3.28-28.72-29.19-89.01-80-120.8-88.08l-.17-.52a12.869 12.869 0 0 0 8.07-6.87l11.04-23.31a12.768 12.768 0 0 0 1.12-7.34l.13-.01s81.49 29.45 107.67 122.85z" fill="#b0b5ca"/><path d="m240.79 124.08a12.93 12.93 0 0 0 -7.23-9.9l-45.85-21.86a12.872 12.872 0 0 0 -17.19 6.13l-11.05 23.31a12.976 12.976 0 0 0 6.12 17.24l45.85 21.86a12.723 12.723 0 0 0 9.12.74 12.869 12.869 0 0 0 8.07-6.87l11.04-23.31a12.768 12.768 0 0 0 1.12-7.34z" fill="#6d7486"/><path d="m464.64 450.11a11.358 11.358 0 0 1 -4.73 13.85l-7.07 4.38-9.07 5.61a7.986 7.986 0 0 1 -10.17-1.47 14.014 14.014 0 0 1 -3.41-11.42l1.83-12.26a13.955 13.955 0 0 1 22.37-8.99l5.92 4.61a13.939 13.939 0 0 1 4.33 5.69z" fill="#968160"/><path d="m443.41 187.76a14 14 0 0 1 12.34 20.75l-3.62 6.59a14.009 14.009 0 0 1 -4.92 5.18 11.284 11.284 0 0 1 -14.38-2.53l-5.41-6.32-6.95-8.1a8.074 8.074 0 0 1 -.13-10.32 13.937 13.937 0 0 1 10.71-5.15z" fill="#968160"/><path d="m317.8 355.91a14.082 14.082 0 0 1 -3.08 11.52l-7.98 9.46a13.943 13.943 0 0 1 -23.74-4.14l-2.62-7.04a14.05 14.05 0 0 1 -.71-7.12 11.321 11.321 0 0 1 11.28-9.3h18.96a8.022 8.022 0 0 1 7.89 6.62z" fill="#968160"/><path d="m201.36 443.05a14.024 14.024 0 0 1 3.58 23.9l-5.84 4.72a13.911 13.911 0 0 1 -6.51 2.92 11.3 11.3 0 0 1 -12.35-7.81l-2.62-7.9-3.37-10.14a8.049 8.049 0 0 1 3.78-9.6 13.933 13.933 0 0 1 11.86-.7z" fill="#968160"/><g fill="#77654d"><path d="m380.65 150.43a8.35 8.35 0 1 1 8.34-8.35 8.354 8.354 0 0 1 -8.34 8.35z"/><path d="m396.66 276.6a8.355 8.355 0 1 1 8.34-8.35 8.354 8.354 0 0 1 -8.34 8.35z"/><path d="m442.4 333.94a8.35 8.35 0 1 1 8.34-8.35 8.354 8.354 0 0 1 -8.34 8.35z"/><path d="m316.62 460.11a8.35 8.35 0 1 1 8.34-8.35 8.36 8.36 0 0 1 -8.34 8.35z"/><path d="m398.83 388.94a8.35 8.35 0 1 1 8.35-8.35 8.354 8.354 0 0 1 -8.35 8.35z"/><path d="m236.57 414.23a8.35 8.35 0 1 1 8.35-8.35 8.354 8.354 0 0 1 -8.35 8.35z"/><path d="m437.82 127.49a8.35 8.35 0 1 1 8.35-8.35 8.354 8.354 0 0 1 -8.35 8.35z"/><path d="m375.96 72.28a8.35 8.35 0 1 1 8.35-8.35 8.354 8.354 0 0 1 -8.35 8.35z"/></g><path d="m340.837 283.894a6 6 0 0 1 -5.709-4.16l-3.871-12a6 6 0 0 1 11.42-3.685l3.871 12a6.005 6.005 0 0 1 -5.711 7.844z" fill="#d4e1f4"/><path d="m348.69 193.758h-7.852a6 6 0 0 1 0-12h7.852a6 6 0 0 1 0 12z" fill="#d4e1f4"/><path d="m273.927 236.426h-14.245a6 6 0 0 1 0-12h14.245a6 6 0 0 1 0 12z" fill="#d4e1f4"/><path d="m285.224 277.973a6 6 0 0 1 -5.055-9.225l8.9-13.977a6 6 0 1 1 10.121 6.446l-8.9 13.978a6 6 0 0 1 -5.066 2.778z" fill="#d4e1f4"/><path d="m468.411 312.473a6 6 0 0 1 -6-6v-6.5a6 6 0 0 1 12 0v6.5a6 6 0 0 1 -6 6z" fill="#f4f8fc"/><path d="m468.411 427.871a6 6 0 0 1 -6-6v-94.3a6 6 0 0 1 12 0v94.3a6 6 0 0 1 -6 6z" fill="#f4f8fc"/></svg>