<svg height="512" viewBox="0 0 64 64" width="512" xmlns="http://www.w3.org/2000/svg"><g id="Data_mining" data-name="Data mining"><path d="m6 3h42v54h-42z" fill="#ffeb99"/><path d="m47.707 30.05-2.828-2.828-.707.707-4.243 4.243-.707.707 4.95 4.949 2.121 2.122 2.828 2.828.707-.707 4.243-4.243.707-.707-2.828-2.828z" fill="#2488ff"/><path d="m44.172 37.828 2.121 2.122z" fill="#ffb655"/><path d="m52.775 45.018a12 12 0 0 1 2.9 4.69l1.225 3.677.862-4.309a12 12 0 0 0 -3.282-10.839l-.409-.409-4.243 4.243z" fill="#d1d3d4"/><path d="m43.763 27.52a12 12 0 0 0 -10.839-3.281l-4.309.861 3.677 1.226a12 12 0 0 1 4.69 2.9l2.947 2.947 4.243-4.243z" fill="#d1d3d4"/><path d="m44.172 27.929-4.243 4.243z" fill="#ffb655"/><path d="m49.389 28.111h3v6h-3z" fill="#808285" transform="matrix(.707 -.707 .707 .707 -7.094 45.096)"/><path d="m47.707 30.05 4.243 4.243z" fill="#ffb655"/><path d="m13 14h4v6h-4z" fill="#d80027"/><path d="m21 10h4v10h-4z" fill="#ffcd00"/><path d="m37 10h4v10h-4z" fill="#ff9811"/><path d="m29 7h4v13h-4z" fill="#5eac24"/><path d="m6 35v22h28c-15.477 0-28-9.84-28-22z" fill="#ffde55"/><path d="m42.05 35.707-19.556 19.556a3 3 0 1 0 4.243 4.243l19.556-19.556-2.121-2.122z" fill="#808285"/><g fill="#ffcd00"><path d="m14 30h-2a1 1 0 0 1 0-2h2a1 1 0 0 1 0 2z"/><path d="m30 30h-12a1 1 0 0 1 0-2h12a1 1 0 0 1 0 2z"/><path d="m35 36h-23a1 1 0 0 1 0-2h23a1 1 0 0 1 0 2z"/><path d="m30 42h-18a1 1 0 0 1 0-2h18a1 1 0 0 1 0 2z"/><path d="m24 48h-12a1 1 0 0 1 0-2h12a1 1 0 0 1 0 2z"/></g><path d="m44 21h-34a1 1 0 0 1 0-2h34a1 1 0 0 1 0 2z" fill="#2488ff"/></g></svg>